<?xml version="1.0" encoding="utf-8"?>
<!-- Generated by IcoMoon.io -->
<!DOCTYPE svg PUBLIC "-//W3C//DTD SVG 1.1//EN" "http://www.w3.org/Graphics/SVG/1.1/DTD/svg11.dtd">
<svg version="1.1" xmlns="http://www.w3.org/2000/svg" xmlns:xlink="http://www.w3.org/1999/xlink" width="27" height="32" viewBox="0 0 27 32">
<path d="M25 22.857h-4.429v4.429q0.518-0.179 0.732-0.393l3.304-3.304q0.214-0.214 0.393-0.732zM20 20.571h5.143v-16h-22.857v22.857h16v-5.143q0-0.714 0.5-1.214t1.214-0.5zM27.429 4v18.286q0 0.714-0.357 1.571t-0.857 1.357l-3.286 3.286q-0.5 0.5-1.357 0.857t-1.571 0.357h-18.286q-0.714 0-1.214-0.5t-0.5-1.214v-24q0-0.714 0.5-1.214t1.214-0.5h24q0.714 0 1.214 0.5t0.5 1.214z"></path>
</svg>
